<?xml version="1.0" encoding="iso-8859-1"?>
<!-- Uploaded to: SVG Repo, www.svgrepo.com, Generator: SVG Repo Mixer Tools -->
<svg height="800px" width="800px" version="1.1" id="Layer_1" xmlns="http://www.w3.org/2000/svg" xmlns:xlink="http://www.w3.org/1999/xlink" 
	 viewBox="0 0 392.533 392.533" xml:space="preserve">
<path style="fill:#FFFFFF;" d="M205.673,39.499c1.875-4.331,3.814-8.339,5.883-12.024c-7.434,2.327-14.545,5.301-21.398,8.986h1.875
	C196.816,36.396,201.471,37.56,205.673,39.499z"/>
<g>
	<path style="fill:#FFFFFF;" d="M224.679,193.358c19.459-0.905,38.853-0.711,58.182,0.646c1.745-11.636,3.038-24.63,3.426-38.529
		h-61.673v37.947h0.065V193.358z"/>
	<path style="fill:#FFFFFF;" d="M222.287,56.889c1.552,3.814,2.392,7.952,2.392,12.283v4.784c18.036,0.84,36.008,0.776,53.915-0.388
		c-8.016-32.711-20.687-51.717-30.578-51.717C241.034,21.786,230.626,32.711,222.287,56.889z"/>
	<path style="fill:#FFFFFF;" d="M282.925,95.095c-11.572,0.84-23.208,1.293-34.78,1.293c-7.822,0-15.58-0.259-23.402-0.646v37.883
		h61.673C285.834,119.661,284.671,106.796,282.925,95.095z"/>
	<path style="fill:#FFFFFF;" d="M284.865,27.41c6.723,11.96,11.96,27.152,15.838,44.154c13.705-1.552,27.281-3.62,40.792-6.4
		C326.756,47.774,307.168,34.457,284.865,27.41z"/>
	<path style="fill:#FFFFFF;" d="M308.137,133.689h62.125c-1.552-17.713-6.853-34.392-15.192-49.131
		c-16.679,3.685-33.487,6.594-50.36,8.598C306.586,106.149,307.749,119.855,308.137,133.689z"/>
	<path style="fill:#FFFFFF;" d="M284.865,261.624c22.303-7.046,41.891-20.234,56.63-37.689c-13.511-2.78-27.152-4.848-40.792-6.4
		C296.824,234.537,291.588,249.665,284.865,261.624z"/>
	<path style="fill:#FFFFFF;" d="M370.263,155.475h-62.125c-0.388,13.834-1.552,27.539-3.491,40.598
		c16.937,1.939,33.681,4.848,50.36,8.598C363.345,189.867,368.711,173.188,370.263,155.475z"/>
	<path style="fill:#FFFFFF;" d="M278.594,215.596c-17.907-1.164-35.943-1.293-53.915-0.388v23.596
		c8.404,21.01,17.519,28.574,23.337,28.574C257.907,267.248,270.578,248.372,278.594,215.596z"/>
	<path style="fill:#FFFFFF;" d="M202.893,69.172c0-6.012-4.848-10.925-10.925-10.925H32.808c-6.012,0-10.925,4.848-10.925,10.925
		v290.651c0,6.012,4.848,10.925,10.925,10.925h159.16c6.012,0,10.925-4.848,10.925-10.925L202.893,69.172L202.893,69.172z"/>
</g>
<path style="fill:#FFC10D;" d="M43.604,119.467v8.857H92.8c6.012,0,10.925,4.848,10.925,10.925c0,6.012-4.848,10.925-10.925,10.925
	H43.604v22.95h16.549c6.012,0,10.925,4.848,10.925,10.925c0,6.012-4.848,10.925-10.925,10.925H43.604v114.618h137.374V119.467
	H43.604z"/>
<g>
	<path style="fill:#194F82;" d="M248.016,0c-35.556,0-69.366,12.929-95.871,36.396H32.743c-18.036,0-32.711,14.675-32.711,32.776
		v290.651c0,18.036,14.675,32.711,32.711,32.711h159.16c18.036,0,32.711-14.675,32.711-32.711V287.16
		c7.758,1.228,15.515,2.004,23.337,2.004c79.774,0,144.549-64.84,144.549-144.549S327.725,0,248.016,0z M202.893,166.141v193.681
		c0,5.947-4.913,10.925-10.925,10.925H32.808c-6.012,0-10.925-4.848-10.925-10.925V69.172c0-6.012,4.848-10.925,10.925-10.925
		h159.16c1.099,0,2.069,0.259,3.038,0.453c4.59,1.293,7.887,5.495,7.887,10.408V166.141z M205.543,39.499
		c-4.202-1.939-8.792-3.038-13.705-3.038h-1.745c6.788-3.685,13.964-6.723,21.333-9.051
		C209.358,31.03,207.418,35.168,205.543,39.499z M355.006,84.558c8.339,14.739,13.705,31.354,15.192,49.131h-21.915h-40.145
		c-0.388-13.834-1.552-27.539-3.491-40.598c9.18-1.099,18.36-2.457,27.604-4.008C339.879,87.725,347.442,86.238,355.006,84.558z
		 M341.495,65.164c-8.663,1.745-17.39,3.168-26.117,4.396c-4.848,0.711-9.826,1.422-14.675,2.004
		c-1.228-5.43-2.651-10.537-4.202-15.451c-3.232-10.731-7.111-20.493-11.636-28.574C307.168,34.457,326.756,47.774,341.495,65.164z
		 M286.222,133.689h-61.608V95.806c7.822,0.388,15.58,0.646,23.402,0.646c11.572,0,23.273-0.453,34.78-1.293
		C284.606,106.796,285.834,119.661,286.222,133.689z M222.287,56.76c1.422-4.008,2.844-7.564,4.331-10.925
		c7.434-16.485,15.58-24.113,21.398-24.113c6.659,0,14.545,8.598,21.463,24.178c3.426,7.564,6.465,16.873,9.115,27.539
		c-17.907,1.164-35.943,1.293-53.915,0.388v-4.784C224.679,64.776,223.838,60.574,222.287,56.76z M269.479,243.006
		c-6.982,15.709-14.869,24.242-21.463,24.242c-5.43,0-13.576-6.465-21.463-24.113c-0.646-1.422-1.228-2.844-1.875-4.461v-23.596
		c18.036-0.84,36.008-0.776,53.915,0.388C275.943,226.263,272.776,235.442,269.479,243.006z M224.679,193.422v-37.947h61.673
		c-0.453,13.899-1.616,26.828-3.491,38.529C263.531,192.646,244.073,192.453,224.679,193.422z M284.865,261.624
		c4.59-8.21,8.404-17.907,11.636-28.574c1.552-4.978,2.909-10.15,4.202-15.451c4.913,0.517,9.826,1.228,14.675,2.004
		c8.727,1.228,17.455,2.715,26.117,4.396C326.756,241.39,307.168,254.578,284.865,261.624z M355.006,204.606
		c-7.564-1.681-15.127-3.168-22.82-4.59c-9.115-1.616-18.295-3.038-27.604-4.008c1.939-13.059,3.103-26.764,3.491-40.598h40.21
		h21.915C368.711,173.188,363.345,189.867,355.006,204.606z"/>
	<path style="fill:#194F82;" d="M152.857,252.315v-37.301c0-6.012-4.848-10.925-10.925-10.925H104.63
		c-6.012,0-10.925,4.848-10.925,10.925c0,6.012,4.848,10.925,10.925,10.925h11.055l-40.727,40.663
		c-4.267,4.267-4.267,11.119,0,15.451c4.008,4.008,10.99,4.461,15.451,0l40.663-40.663v11.055c0,6.012,4.848,10.925,10.925,10.925
		C148.073,263.37,152.857,258.327,152.857,252.315z"/>
	<path style="fill:#194F82;" d="M102.238,97.228h25.341c6.012,0,10.925-4.848,10.925-10.925c0-6.077-4.848-10.925-10.925-10.925
		h-25.341c-6.012,0-10.925,4.848-10.925,10.925C91.313,92.38,96.226,97.228,102.238,97.228z"/>
	<path style="fill:#194F82;" d="M71.014,331.701H56.663c-6.012,0-10.925,4.848-10.925,10.925s4.848,10.925,10.925,10.925h14.481
		c6.012,0,10.925-4.848,10.925-10.925C81.939,336.679,77.091,331.701,71.014,331.701z"/>
	<path style="fill:#194F82;" d="M168.048,331.701h-14.481c-6.012,0-10.925,4.848-10.925,10.925s4.848,10.925,10.925,10.925h14.481
		c6.012,0,10.925-4.848,10.925-10.925C178.909,336.679,174.061,331.701,168.048,331.701z"/>
</g>
<g>
	<path style="fill:#56ACE0;" d="M224.679,215.208v23.596c0.646,1.552,1.228,3.038,1.875,4.461
		c7.046,1.552,14.222,2.327,21.463,2.327c7.434-0.065,14.545-0.905,21.463-2.457c3.426-7.564,6.465-16.873,9.115-27.539
		C260.687,214.432,242.65,214.303,224.679,215.208z"/>
	<path style="fill:#56ACE0;" d="M308.137,155.475c-0.388,13.834-1.552,27.539-3.491,40.598c9.18,1.099,18.36,2.457,27.604,4.008
		c8.663-13.059,14.352-28.251,16.162-44.606H308.137z"/>
	<path style="fill:#56ACE0;" d="M248.081,96.323c-7.822,0-15.58-0.259-23.402-0.646v37.883h61.673
		c-0.388-13.899-1.616-26.828-3.426-38.529C271.354,95.871,259.717,96.323,248.081,96.323z"/>
	<path style="fill:#56ACE0;" d="M296.501,232.986c6.788-3.814,13.059-8.339,18.877-13.511c-4.848-0.646-9.826-1.422-14.675-1.939
		C299.475,222.901,298.053,228.008,296.501,232.986z"/>
	<path style="fill:#56ACE0;" d="M224.549,73.956c18.036,0.84,36.008,0.776,53.915-0.388c-2.651-10.731-5.818-19.911-9.115-27.539
		c-6.982-1.487-14.093-2.327-21.463-2.327c-7.176-0.129-14.352,0.776-21.398,2.263c-1.487,3.232-2.909,6.853-4.331,10.925
		c1.552,3.814,2.392,7.952,2.392,12.283L224.549,73.956L224.549,73.956z"/>
	<path style="fill:#56ACE0;" d="M308.137,133.689h40.21c-1.745-16.356-7.499-31.547-16.097-44.606
		c-9.115,1.552-18.295,2.909-27.604,4.008C306.586,106.149,307.749,119.855,308.137,133.689z"/>
	<path style="fill:#56ACE0;" d="M224.549,193.358h0.065c19.459-0.905,38.853-0.711,58.182,0.646
		c1.745-11.636,3.038-24.63,3.426-38.529h-61.673V193.358z"/>
	<path style="fill:#56ACE0;" d="M315.378,69.56c-5.689-5.172-12.024-9.762-18.877-13.511c1.552,5.042,2.909,10.149,4.202,15.515
		C305.616,70.982,310.529,70.335,315.378,69.56z"/>
</g>
</svg>